<svg xmlns="http://www.w3.org/2000/svg" width="36" height="30">
      <path
        d="M 35.896 3.56 C 34.556 4.174 33.129 4.577 31.666 4.756 C 33.216 3.792 34.366 2.301 34.904 0.556 C 33.464 1.438 31.881 2.061 30.226 2.396 C 28.854 0.874 26.903 0.004 24.854 0 C 20.786 0 17.49 3.4 17.49 7.594 C 17.49 8.19 17.552 8.77 17.68 9.324 C 11.712 8.993 6.178 6.101 2.5 1.39 C 1.841 2.554 1.497 3.869 1.502 5.206 C 1.502 7.844 2.802 10.166 4.778 11.53 C 3.606 11.49 2.461 11.164 1.444 10.58 L 1.444 10.674 C 1.444 14.354 3.98 17.424 7.35 18.12 C 6.267 18.426 5.126 18.47 4.022 18.25 C 4.968 21.33 7.738 23.45 10.904 23.524 C 7.85 26.015 3.912 27.151 0 26.67 C 3.346 28.894 7.273 30.081 11.29 30.084 C 24.836 30.084 32.242 18.51 32.242 8.474 C 32.242 8.146 32.236 7.816 32.224 7.494 C 33.67 6.409 34.914 5.078 35.896 3.56 Z"
        fill="white"
      ></path>
    </svg>